# xmcd CD database file
# Copyright (C) 1993-1998 Ti Kan
#
# Track frame offsets:
#	183
#	29673
#	43825
#	61723
#	76323
#	96813
#	114128
#	132953
#	147875
#	164305
#	179605
#	194765
#	213955
#	228840
#	245570
#	266890
#	282973
#	299863
#	323870
#	343563
#
# Disc length: 4755 seconds
#
# Revision: 1
# Processed by: cddbd v1.4b41PL1 Copyright (c) Steve Scherf et al.
# Submitted via: CDValet v3.31 - Copyright (c) 1997 Greg Leichner
#
DISCID=36129114
DTITLE=Moments - Moments To Remember - Volume 2
DYEAR=1900
DGENRE=
TTITLE0=Sweet Sweet Lady
TTITLE1=Dolly My Love
TTITLE2=Jack In The box
TTITLE3=Look At Me (I'm In Love)
TTITLE4=Nine times
TTITLE5=With You
TTITLE6=We Don't Cry Out Loud
TTITLE7=I Don't Wanna Go
TTITLE8=I Could Have Loved You
TTITLE9=It Don't Rain In My Backyard
TTITLE10=Just To Spend Some Time
TTITLE11=Gonna Keep You Busy
TTITLE12=Sleep Won't Come
TTITLE13=More Than That
TTITLE14=So In Love
TTITLE15=We Finally Found Us
TTITLE16=If You Could Be My Sweet Baby
TTITLE17=Lady In Blue
TTITLE18=I May Be Right, I May Be Wrong
TTITLE19=I've Got To Keep My Head
EXTD=
EXTT0=
EXTT1=
EXTT2=
EXTT3=
EXTT4=
EXTT5=
EXTT6=
EXTT7=
EXTT8=
EXTT9=
EXTT10=
EXTT11=
EXTT12=
EXTT13=
EXTT14=
EXTT15=
EXTT16=
EXTT17=
EXTT18=
EXTT19=
PLAYORDER=
